<?xml version="1.0" encoding="UTF-8" standalone="no"?>
<!-- Created with Inkscape (http://www.inkscape.org/) -->

<svg
   xmlns:dc="http://purl.org/dc/elements/1.1/"
   xmlns:cc="http://creativecommons.org/ns#"
   xmlns:rdf="http://www.w3.org/1999/02/22-rdf-syntax-ns#"
   xmlns:svg="http://www.w3.org/2000/svg"
   xmlns="http://www.w3.org/2000/svg"
   xmlns:sodipodi="http://sodipodi.sourceforge.net/DTD/sodipodi-0.dtd"
   xmlns:inkscape="http://www.inkscape.org/namespaces/inkscape"
   width="210mm"
   height="297mm"
   viewBox="0 0 210 297"
   version="1.1"
   id="svg919"
   inkscape:version="0.92.4 (5da689c313, 2019-01-14)"
   sodipodi:docname="infoimage.svg">
  <defs
     id="defs913">
    <filter
       style="color-interpolation-filters:sRGB"
       inkscape:label="Snow"
       id="filter12109">
      <feGaussianBlur
         in="SourceGraphic"
         stdDeviation="8.21"
         result="blur1"
         id="feGaussianBlur12093" />
      <feComposite
         in="blur1"
         in2="blur1"
         operator="in"
         result="composite1"
         id="feComposite12095" />
      <feComposite
         k4="0"
         k3="0"
         k1="0"
         in="composite1"
         in2="composite1"
         k2="2"
         operator="arithmetic"
         result="composite2"
         id="feComposite12097" />
      <feColorMatrix
         in="composite2"
         values="1 0 0 0 0 0 1 0 0 0 0 0 1 0 0 0 0 0 36.06 -1 "
         result="colormatrix1"
         id="feColorMatrix12099" />
      <feGaussianBlur
         stdDeviation="0.81"
         result="blur2"
         id="feGaussianBlur12101" />
      <feColorMatrix
         in="blur2"
         values="1 0 0 0 0 0 1 0 0 0 0 0 1 0 0 0 0 0 5 -1 "
         result="colormatrix2"
         id="feColorMatrix12103" />
      <feBlend
         in="SourceGraphic"
         in2="colormatrix2"
         stdDeviation="17"
         mode="normal"
         result="blend"
         id="feBlend12105" />
      <feComposite
         in="blend"
         in2="colormatrix2"
         operator="in"
         result="fbSourceGraphic"
         id="feComposite12107" />
      <feColorMatrix
         result="fbSourceGraphicAlpha"
         in="fbSourceGraphic"
         values="0 0 0 -1 0 0 0 0 -1 0 0 0 0 -1 0 0 0 0 1 0"
         id="feColorMatrix15671" />
      <feConvolveMatrix
         id="feConvolveMatrix15673"
         order="3 3"
         kernelMatrix="1 1 1 0 0 0 -1 -1 -1"
         preserveAlpha="false"
         divisor="3"
         in="fbSourceGraphic" />
      <feMorphology
         id="feMorphology15675"
         operator="dilate"
         radius="1 2.6" />
      <feGaussianBlur
         id="feGaussianBlur15677"
         stdDeviation="1.6270889487870621"
         result="result0" />
      <feColorMatrix
         id="feColorMatrix15679"
         values="0 0 0 0 0 0 0 0 0 0 0 0 0 0 0 0 0 0 10 0"
         result="result1" />
      <feOffset
         id="feOffset15681"
         dx="0"
         dy="1"
         result="result5" />
      <feDiffuseLighting
         id="feDiffuseLighting15683"
         in="result0"
         diffuseConstant="2.26130652"
         surfaceScale="1"
         result="result6">
        <feDistantLight
           id="feDistantLight15685"
           azimuth="225"
           elevation="32" />
      </feDiffuseLighting>
      <feComposite
         in2="result1"
         id="feComposite15687"
         operator="in"
         result="result2" />
      <feColorMatrix
         id="feColorMatrix15689"
         values="0.4 0 0 0 0.6 0 0.4 0 0 0.6 0 0 0 0 1 0 0 0 1 0"
         result="result4" />
      <feComposite
         in2="result5"
         id="feComposite15691"
         in="result4"
         result="result7" />
      <feComposite
         in2="fbSourceGraphic"
         id="feComposite15693" />
    </filter>
    <filter
       inkscape:label="Cracked Glass"
       inkscape:menu="Textures"
       inkscape:menu-tooltip="Under a cracked glass"
       style="color-interpolation-filters:sRGB"
       id="filter12054">
      <feTurbulence
         baseFrequency="0.1"
         seed="50"
         numOctaves="5"
         result="result1"
         type="fractalNoise"
         id="feTurbulence12030" />
      <feGaussianBlur
         stdDeviation="4"
         result="result7"
         id="feGaussianBlur12032" />
      <feDisplacementMap
         yChannelSelector="A"
         result="result5"
         in="SourceGraphic"
         scale="20"
         xChannelSelector="G"
         in2="result7"
         id="feDisplacementMap12034" />
      <feComposite
         result="result2"
         operator="in"
         in2="result1"
         in="result5"
         id="feComposite12036" />
      <feGaussianBlur
         stdDeviation="1"
         result="result6"
         id="feGaussianBlur12038" />
      <feSpecularLighting
         surfaceScale="-3"
         result="result4"
         specularConstant="3.5"
         specularExponent="35"
         in="result6"
         id="feSpecularLighting12042">
        <feDistantLight
           elevation="45"
           azimuth="225"
           id="feDistantLight12040" />
      </feSpecularLighting>
      <feComposite
         k4="0"
         k2="0"
         k1="1.7"
         k3="0.7"
         in2="result2"
         in="result4"
         operator="arithmetic"
         result="result91"
         id="feComposite12044" />
      <feBlend
         result="fbSourceGraphic"
         mode="multiply"
         in2="result91"
         id="feBlend12046" />
      <feComposite
         k4="0"
         k3="0"
         k2="0"
         k1="0"
         in2="fbSourceGraphic"
         in="fbSourceGraphic"
         result="result2"
         operator="arithmetic"
         id="feComposite12048" />
      <feComposite
         k4="0"
         k1="0"
         in="result2"
         result="result4"
         operator="arithmetic"
         k2="2"
         k3="2"
         in2="fbSourceGraphic"
         id="feComposite12050" />
      <feBlend
         mode="screen"
         in="result4"
         in2="result4"
         id="feBlend12052" />
    </filter>
    <filter
       style="color-interpolation-filters:sRGB"
       inkscape:label="Drop Shadow"
       id="filter7733-8">
      <feFlood
         flood-opacity="0.498039"
         flood-color="rgb(0,0,0)"
         result="flood"
         id="feFlood7723-7" />
      <feComposite
         in="flood"
         in2="SourceGraphic"
         operator="in"
         result="composite1"
         id="feComposite7725-3" />
      <feGaussianBlur
         in="composite1"
         stdDeviation="1.1"
         result="blur"
         id="feGaussianBlur7727-0" />
      <feOffset
         dx="1.3"
         dy="1.6"
         result="offset"
         id="feOffset7729-2" />
      <feComposite
         in="SourceGraphic"
         in2="offset"
         operator="over"
         result="composite2"
         id="feComposite7731-4" />
    </filter>
  </defs>
  <sodipodi:namedview
     id="base"
     pagecolor="#ffffff"
     bordercolor="#666666"
     borderopacity="1.0"
     inkscape:pageopacity="0.0"
     inkscape:pageshadow="2"
     inkscape:zoom="0.35"
     inkscape:cx="-101.42857"
     inkscape:cy="560"
     inkscape:document-units="mm"
     inkscape:current-layer="layer1"
     showgrid="false"
     inkscape:window-width="1280"
     inkscape:window-height="697"
     inkscape:window-x="-8"
     inkscape:window-y="-8"
     inkscape:window-maximized="1" />
  <metadata
     id="metadata916">
    <rdf:RDF>
      <cc:Work
         rdf:about="">
        <dc:format>image/svg+xml</dc:format>
        <dc:type
           rdf:resource="http://purl.org/dc/dcmitype/StillImage" />
        <dc:title></dc:title>
      </cc:Work>
    </rdf:RDF>
  </metadata>
  <g
     inkscape:label="Layer 1"
     inkscape:groupmode="layer"
     id="layer1">
    <ellipse
       style="opacity:0.11499999;fill:#0c6bff;fill-opacity:1;stroke:none;stroke-width:1.13;stroke-miterlimit:4;stroke-dasharray:none;stroke-dashoffset:0;stroke-opacity:1"
       id="path4547"
       cx="81.173233"
       cy="141.16042"
       rx="76.351196"
       ry="73.70536"
       inkscape:export-xdpi="96"
       inkscape:export-ydpi="96" />
    <text
       xml:space="preserve"
       style="font-style:normal;font-weight:normal;font-size:21.94300842px;line-height:1.25;font-family:sans-serif;letter-spacing:0px;word-spacing:0px;fill:#ffffff;fill-opacity:1;stroke:none;stroke-width:0.74805707"
       x="32.919266"
       y="134.0735"
       id="text4551"
       inkscape:export-xdpi="96"
       inkscape:export-ydpi="96"><tspan
         sodipodi:role="line"
         id="tspan4549"
         x="32.919266"
         y="134.0735"
         style="fill:#ffffff;stroke-width:0.74805707">Learning</tspan></text>
    <text
       xml:space="preserve"
       style="font-style:normal;font-weight:normal;font-size:14.44278908px;line-height:1.25;font-family:sans-serif;letter-spacing:0px;word-spacing:0px;fill:#ffffff;fill-opacity:1;stroke:none;stroke-width:0.49236771"
       x="34.407639"
       y="160.03609"
       id="text4555"
       inkscape:export-xdpi="96"
       inkscape:export-ydpi="96"><tspan
         sodipodi:role="line"
         id="tspan4553"
         x="34.407639"
         y="160.03609"
         style="fill:#ffffff;stroke-width:0.49236771">Programming</tspan></text>
    <g
       transform="matrix(0.67404673,0,0,0.67404673,220.64463,70.929128)"
       id="g12091"
       style="filter:url(#filter12109)"
       inkscape:export-xdpi="96"
       inkscape:export-ydpi="96">
      <g
         id="g12028"
         style="filter:url(#filter12054)">
        <path
           style="fill:#ffffff;stroke:#000000;stroke-width:0.31004778px;stroke-linecap:butt;stroke-linejoin:miter;stroke-opacity:1;filter:url(#filter7733-8)"
           d="m -186.13055,210.10919 v -30.56186 l 118.261093,-11.07314 v 49.16472 z"
           id="path5263"
           inkscape:connector-curvature="0"
           transform="matrix(1,0,0,1.1114865,0,-26.664179)" />
        <rect
           style="fill:none;fill-opacity:1;stroke:none;stroke-width:1.09200001;stroke-miterlimit:4;stroke-dasharray:none;stroke-dashoffset:0;stroke-opacity:1"
           id="rect11964"
           width="199.9494"
           height="102.43154"
           x="-242.66072"
           y="134.84821" />
      </g>
      <g
         transform="translate(-198.27947,-49.41865)"
         id="g5416">
        <path
           inkscape:export-ydpi="90"
           inkscape:export-xdpi="90"
           inkscape:export-filename="C:\xampp\htdocs\motor2\countries\SWE\images\logo.png"
           inkscape:connector-curvature="0"
           id="rect4530"
           d="m 20.740491,240.69536 c 0,0 0,11.79664 0,11.79664 0,0 99.455939,6.3324 99.455939,6.3324 0,0 0,-18.81113 0,-18.81113 0,0 -99.455939,0.68209 -99.455939,0.68209"
           style="fill:#008080;fill-opacity:1;stroke:none;stroke-width:0.35440207;stroke-miterlimit:4;stroke-dasharray:none;stroke-dashoffset:0;stroke-opacity:1" />
        <g
           id="text4520"
           style="font-style:normal;font-weight:normal;font-size:7.9876914px;line-height:1.25;font-family:sans-serif;letter-spacing:0px;word-spacing:0px;fill:#ff7b00;fill-opacity:1;stroke:#030303;stroke-width:0.27230763;stroke-opacity:1"
           aria-label="eu">
          <path
             inkscape:connector-curvature="0"
             d="m 24.848596,233.31864 c 0,0 -3.773656,0.1877 -3.773656,0.1877 0.05895,1.32243 0.578409,1.96543 1.56698,1.92798 0.63654,-0.0241 1.199833,-0.28703 1.688373,-0.79076 0,0 0,2.07137 0,2.07137 -0.541804,0.4751 -1.240657,0.72268 -2.092662,0.7448 -0.921094,0.0239 -1.629155,-0.36353 -2.129445,-1.15857 -0.497304,-0.79619 -0.744844,-1.91581 -0.744844,-3.36243 0,-1.49954 0.267448,-2.7061 0.80494,-3.62411 0.54098,-0.92397 1.211073,-1.4213 2.01335,-1.48795 0.84013,-0.0698 1.494729,0.27704 1.959402,1.04417 0.471057,0.77105 0.707562,1.85073 0.707562,3.23584 0,0 0,1.21196 0,1.21196 m -1.675929,-1.66718 c 0,-1.32343 -0.335397,-1.96108 -1.00223,-1.91323 -0.283118,0.0203 -0.528214,0.22568 -0.735615,0.61543 -0.2032,0.38855 -0.326727,0.8632 -0.370931,1.42444 0,0 2.108776,-0.12664 2.108776,-0.12664"
             style="font-style:normal;font-variant:normal;font-weight:bold;font-stretch:normal;font-size:17.4276886px;font-family:'Nirmala UI';-inkscape-font-specification:'Nirmala UI Bold';fill:#ff7b00;fill-opacity:1;stroke:#030303;stroke-width:0.27230763;stroke-opacity:1"
             id="path5418" />
          <path
             inkscape:connector-curvature="0"
             d="m 31.82812,236.97357 c 0,0 -1.949255,0.0532 -1.949255,0.0532 0,0 0,-1.46328 0,-1.46328 0,0 -0.0306,0.001 -0.0306,0.001 -0.475943,1.14554 -1.108568,1.72627 -1.894474,1.74668 -1.409581,0.0366 -2.105865,-1.26211 -2.105865,-3.8957 0,0 0,-5.66437 0,-5.66437 0,0 1.860717,-0.15211 1.860717,-0.15211 0,0 0,5.4661 0,5.4661 0,1.34028 0.343,1.9971 1.033068,1.9703 0.34304,-0.0133 0.61844,-0.20795 0.825558,-0.58451 0.207607,-0.38369 0.311594,-0.8948 0.311594,-1.53264 0,0 0,-5.49667 0,-5.49667 0,0 1.949254,-0.15936 1.949254,-0.15936 0,0 2e-6,9.71125 2e-6,9.71125"
             style="font-style:normal;font-variant:normal;font-weight:bold;font-stretch:normal;font-size:17.4276886px;font-family:'Nirmala UI';-inkscape-font-specification:'Nirmala UI Bold';fill:#ff7b00;fill-opacity:1;stroke:#030303;stroke-width:0.27230763;stroke-opacity:1"
             id="path5420" />
        </g>
        <g
           id="text4524"
           style="font-style:normal;font-variant:normal;font-weight:bold;font-stretch:normal;font-size:17.4276886px;line-height:1.25;font-family:'Nirmala UI';-inkscape-font-specification:'Nirmala UI Bold';letter-spacing:0px;word-spacing:0px;fill:#000000;fill-opacity:1;stroke:none;stroke-width:0.27230763"
           aria-label="Nore.com">
          <path
             inkscape:connector-curvature="0"
             d="m 42.233361,238.56194 c 0,0 -2.257231,0.0392 -2.257231,0.0392 0,0 -3.957367,-8.67677 -3.957367,-8.67677 -0.226921,-0.49576 -0.383691,-0.8693 -0.470668,-1.12136 0,0 -0.02608,0.002 -0.02608,0.002 0.03477,0.48806 0.05216,1.23566 0.05216,2.24268 0,0 0,7.63008 0,7.63008 0,0 -1.967738,0.0342 -1.967738,0.0342 0,0 0,-13.73515 0,-13.73515 0,0 2.24862,-0.21054 2.24862,-0.21054 0,0 3.800085,8.28674 3.800085,8.28674 0.177428,0.38139 0.341509,0.7608 0.492171,1.13812 0,0 0.02742,-10e-4 0.02742,-10e-4 -0.03656,-0.32935 -0.05483,-0.98028 -0.05483,-1.95289 0,0 0,-7.87017 0,-7.87017 0,0 2.113455,-0.19789 2.113455,-0.19789 0,0 0,14.39298 0,14.39298"
             style="font-style:normal;font-variant:normal;font-weight:bold;font-stretch:normal;font-size:17.4276886px;font-family:'Nirmala UI';-inkscape-font-specification:'Nirmala UI Bold';stroke-width:0.27230763"
             id="path5423" />
          <path
             inkscape:connector-curvature="0"
             d="m 47.914516,238.72167 c -1.260851,0.0202 -2.241836,-0.45116 -2.951231,-1.40868 -0.699404,-0.95736 -1.047193,-2.26379 -1.047193,-3.92453 0,-1.71474 0.362109,-3.07668 1.090475,-4.09161 0.733948,-1.02953 1.735216,-1.59351 3.012109,-1.68693 1.273765,-0.0932 2.284527,0.33524 3.02388,1.29155 0.744928,0.95649 1.119503,2.26855 1.119503,3.93076 0,1.79603 -0.387466,3.22655 -1.157881,4.28535 -0.759376,1.05051 -1.79215,1.58327 -3.089662,1.60409 0,0 0,0 0,0 m 0.05951,-8.60567 c -0.553981,0.0334 -0.982132,0.32333 -1.2861,0.86863 -0.303013,0.54359 -0.454164,1.29648 -0.454164,2.25994 0,2.01577 0.581518,3.00684 1.755146,2.9729 1.132737,-0.0328 1.704068,-1.10307 1.704068,-3.21066 0,-1.9963 -0.57635,-2.9597 -1.71895,-2.89081 0,0 0,0 0,0"
             style="font-style:normal;font-variant:normal;font-weight:bold;font-stretch:normal;font-size:17.4276886px;font-family:'Nirmala UI';-inkscape-font-specification:'Nirmala UI Bold';stroke-width:0.27230763"
             id="path5425" />
          <path
             inkscape:connector-curvature="0"
             d="m 59.179856,230.18416 c -0.315777,-0.20781 -0.682959,-0.29925 -1.10099,-0.27487 -0.56383,0.0329 -1.002335,0.33273 -1.317111,0.89835 -0.313797,0.55668 -0.470333,1.3017 -0.470333,2.23636 0,0 0,5.2736 0,5.2736 0,0 -2.524795,0.0439 -2.524795,0.0439 0,0 0,-10.90584 0,-10.90584 0,0 2.524795,-0.18136 2.524795,-0.18136 0,0 0,2.04906 0,2.04906 0,0 0.03233,-0.002 0.03233,-0.002 0.405471,-1.5237 1.139411,-2.32646 2.208948,-2.40431 0.27605,-0.0201 0.491886,0.008 0.647125,0.0841 0,0 3e-5,3.18298 3e-5,3.18298"
             style="font-style:normal;font-variant:normal;font-weight:bold;font-stretch:normal;font-size:17.4276886px;font-family:'Nirmala UI';-inkscape-font-specification:'Nirmala UI Bold';stroke-width:0.27230763"
             id="path5427" />
          <path
             inkscape:connector-curvature="0"
             d="m 68.215633,233.29173 c 0,0 -5.892435,0.23464 -5.892435,0.23464 0.09155,1.64805 0.898921,2.45132 2.438838,2.40826 0.99392,-0.0278 1.875027,-0.35469 2.640392,-0.98386 0,0 0,2.59358 0,2.59358 -0.848741,0.59112 -1.941501,0.89569 -3.270699,0.91702 -1.433246,0.023 -2.532371,-0.46473 -3.307598,-1.4574 -0.769466,-0.99263 -1.152061,-2.38526 -1.152061,-4.18339 0,-1.86392 0.413378,-3.36522 1.245126,-4.51079 0.838472,-1.15482 1.878908,-1.781 3.127283,-1.87233 1.310432,-0.0959 2.333727,0.33116 3.061325,1.28685 0.738607,0.96188 1.109829,2.31313 1.109829,4.04875 0,0 0,1.51867 0,1.51867 m -2.624997,-2.0836 c 0,-1.65424 -0.523773,-2.44898 -1.563598,-2.38468 -0.440863,0.0273 -0.822224,0.28503 -1.144719,0.77228 -0.315773,0.48543 -0.507639,1.07754 -0.576278,1.77708 0,0 3.284595,-0.16468 3.284595,-0.16468"
             style="font-style:normal;font-variant:normal;font-weight:bold;font-stretch:normal;font-size:17.4276886px;font-family:'Nirmala UI';-inkscape-font-specification:'Nirmala UI Bold';stroke-width:0.27230763"
             id="path5429" />
          <path
             inkscape:connector-curvature="0"
             d="m 71.241675,238.34725 c -0.483943,0.008 -0.885589,-0.1703 -1.205837,-0.53338 -0.319305,-0.36201 -0.478604,-0.81071 -0.478604,-1.34691 0,-0.55151 0.162365,-1.00824 0.487829,-1.37099 0.332614,-0.36407 0.746724,-0.55483 1.243261,-0.57151 0.50506,-0.017 0.918326,0.15136 1.23874,0.50583 0.327665,0.34755 0.491865,0.79799 0.491865,1.35055 0,0.56814 -0.167355,1.03847 -0.501303,1.41015 -0.326659,0.3627 -0.752363,0.54786 -1.275951,0.55626 0,0 0,0 0,0"
             style="font-style:normal;font-variant:normal;font-weight:bold;font-stretch:normal;font-size:17.4276886px;font-family:'Nirmala UI';-inkscape-font-specification:'Nirmala UI Bold';stroke-width:0.27230763"
             id="path5431" />
          <path
             inkscape:connector-curvature="0"
             d="m 82.947682,237.40284 c -0.736435,0.51698 -1.791488,0.78528 -3.156315,0.80719 -1.573971,0.0253 -2.831879,-0.521 -3.783964,-1.63138 -0.944006,-1.10094 -1.413012,-2.53368 -1.413012,-4.30518 0,-2.04584 0.501204,-3.68663 1.51046,-4.93081 1.025042,-1.26394 2.407652,-1.96369 4.16099,-2.09196 1.227318,-0.0898 2.123917,0.0394 2.681841,0.38948 0,0 0,3.27012 0,3.27012 -0.681536,-0.56176 -1.437473,-0.81627 -2.266302,-0.7663 -0.916871,0.0553 -1.63972,0.41871 -2.172193,1.08824 -0.523355,0.65807 -0.784121,1.54242 -0.784121,2.65534 0,1.08113 0.250852,1.92275 0.754243,2.52688 0.505653,0.59886 1.204651,0.88642 2.100577,0.86051 0.800847,-0.0232 1.590212,-0.34595 2.367796,-0.97142 0,0 0,3.09929 0,3.09929"
             style="font-style:normal;font-variant:normal;font-weight:bold;font-stretch:normal;font-size:17.4276886px;font-family:'Nirmala UI';-inkscape-font-specification:'Nirmala UI Bold';stroke-width:0.27230763"
             id="path5433" />
          <path
             inkscape:connector-curvature="0"
             d="m 90.389998,238.03991 c -1.869257,0.03 -3.319948,-0.53879 -4.36702,-1.69817 -1.030707,-1.15744 -1.542641,-2.73956 -1.542641,-4.75405 0,-2.07999 0.533022,-3.73771 1.606481,-4.98174 1.08345,-1.26391 2.564396,-1.96873 4.457845,-2.10726 1.89423,-0.13858 3.401215,0.36493 4.505717,1.52012 1.114704,1.15723 1.675923,2.75738 1.675923,4.79243 0,2.19888 -0.580526,3.95336 -1.733304,5.2541 -1.134292,1.28831 -2.673855,1.94361 -4.603001,1.97457 0,0 0,0 0,0 m 0.08838,-10.48659 c -0.822061,0.0496 -1.456697,0.4093 -1.906886,1.07754 -0.448479,0.6657 -0.672078,1.58346 -0.672078,2.75518 0,2.4515 0.860655,3.65236 2.601064,3.60203 1.684127,-0.0487 2.535197,-1.35988 2.535197,-3.93303 0,-2.43727 -0.858542,-3.60414 -2.557297,-3.50172 0,0 0,0 0,0"
             style="font-style:normal;font-variant:normal;font-weight:bold;font-stretch:normal;font-size:17.4276886px;font-family:'Nirmala UI';-inkscape-font-specification:'Nirmala UI Bold';stroke-width:0.27230763"
             id="path5435" />
          <path
             inkscape:connector-curvature="0"
             d="m 120.08195,237.20892 c 0,0 -4.33227,0.0753 -4.33227,0.0753 0,0 0,-8.14458 0,-8.14458 0,-2.07332 -0.73755,-3.06552 -2.20028,-2.97733 -0.68995,0.0416 -1.24895,0.38267 -1.67866,1.02178 -0.42828,0.637 -0.64189,1.41157 -0.64189,2.32529 0,0 0,7.85341 0,7.85341 0,0 -4.06418,0.0706 -4.06418,0.0706 0,0 0,-7.95891 0,-7.95891 0,-1.9515 -0.67752,-2.8864 -2.02177,-2.80535 -0.67091,0.0404 -1.20672,0.35687 -1.60912,0.94799 -0.39294,0.58879 -0.58895,1.36889 -0.58895,2.34167 0,0 0,7.54794 0,7.54794 0,0 -3.80906,0.0662 -3.80906,0.0662 0,0 0,-13.37624 0,-13.37624 0,0 3.80906,-0.27361 3.80906,-0.27361 0,0 0,2.12244 0,2.12244 0,0 0.0489,-0.003 0.0489,-0.003 0.40067,-0.75185 0.96296,-1.37957 1.68902,-1.88353 0.73861,-0.51643 1.54858,-0.8079 2.43124,-0.87247 1.84384,-0.1349 3.12116,0.64089 3.81459,2.33568 1.02092,-1.81441 2.53654,-2.80034 4.56422,-2.94868 3.04163,-0.22253 4.58908,1.61117 4.58908,5.50499 0,0 5e-5,9.03046 5e-5,9.03046"
             style="font-style:normal;font-variant:normal;font-weight:bold;font-stretch:normal;font-size:17.4276886px;font-family:'Nirmala UI';-inkscape-font-specification:'Nirmala UI Bold';stroke-width:0.27230763"
             id="path5437" />
        </g>
        <g
           id="text4528"
           style="font-style:normal;font-variant:normal;font-weight:bold;font-stretch:normal;font-size:7.9876914px;line-height:1.25;font-family:Arial;-inkscape-font-specification:'Arial Bold';letter-spacing:1.90343082px;word-spacing:0px;fill:#ffffff;fill-opacity:1;stroke:#ffffff;stroke-width:0.27230763;stroke-opacity:1"
           aria-label="Marknadsplatsen">
          <path
             inkscape:connector-curvature="0"
             d="m 23.659173,245.96327 c -0.07829,0.44583 -0.187777,1.1182 -0.328338,2.01629 -0.03294,0.3106 -0.06499,0.61974 -0.09617,0.92741 -0.07098,0.38854 -0.201529,0.5784 -0.391376,0.56984 -0.118868,-0.005 -0.212639,-0.0742 -0.281396,-0.20636 -0.0584,-0.11242 -0.08758,-0.2441 -0.08758,-0.39512 0,-0.44482 0.05924,-0.985 0.177838,-1.6212 0.177351,-0.95463 0.273068,-1.48484 0.286874,-1.58915 0.05007,-0.42301 0.101025,-0.84625 0.152879,-1.26974 0.07784,-0.58334 0.161817,-0.97131 0.251945,-1.16366 0.09196,-0.19531 0.207483,-0.2926 0.346668,-0.2917 0.1586,0.001 0.27556,0.1292 0.350709,0.38469 0.06996,0.24181 0.145242,0.73628 0.225844,1.48378 0.07717,0.72593 0.192175,1.50904 0.34517,2.34999 0.200892,-0.82055 0.38811,-1.72415 0.561562,-2.71084 0,0 0.148953,-0.96102 0.148953,-0.96102 0.09589,-0.39857 0.24438,-0.59741 0.445737,-0.59618 0.194677,0.001 0.33963,0.23486 0.434608,0.70143 0.03946,0.18847 0.08162,0.5399 0.1265,1.05445 0.10421,1.1988 0.23555,2.22832 0.394143,3.08864 0.160691,0.87606 0.241149,1.35276 0.241149,1.42886 0,0.16631 -0.0425,0.30397 -0.127432,0.41291 -0.07944,0.0978 -0.168716,0.14442 -0.267808,0.13992 -0.196048,-0.009 -0.341447,-0.23447 -0.436452,-0.67629 0,0 -0.150361,-1.02369 -0.150361,-1.02369 -0.0858,-0.50732 -0.178659,-1.23415 -0.278547,-2.18003 -0.08018,0.37293 -0.212766,0.95788 -0.397508,1.75381 0,0 -0.159554,0.76449 -0.159554,0.76449 -0.06551,0.30143 -0.133619,0.54816 -0.204325,0.74026 -0.0936,0.255 -0.22411,0.37866 -0.391368,0.3712 -0.165176,-0.007 -0.291479,-0.16699 -0.379079,-0.47866 0,0 -0.146967,-0.77926 -0.146967,-0.77926 -0.136242,-0.7139 -0.258325,-1.46222 -0.36631,-2.24507 0,0 0,0 0,0"
             style="font-style:normal;font-variant:normal;font-weight:bold;font-stretch:normal;font-family:'Comic Sans MS';-inkscape-font-specification:'Comic Sans MS Bold';letter-spacing:1.90343082px;fill:#ffffff;stroke:#ffffff;stroke-width:0.27230763;stroke-opacity:1"
             id="path5440" />
          <path
             inkscape:connector-curvature="0"
             d="m 31.104251,249.84919 c -0.08718,-0.004 -0.225364,-0.15428 -0.414304,-0.45056 -0.173469,0.11916 -0.325916,0.20739 -0.45745,0.2648 -0.131338,0.0602 -0.242822,0.0882 -0.334526,0.0841 -0.449654,-0.0202 -0.785857,-0.21927 -1.009895,-0.59673 -0.221624,-0.37642 -0.332226,-0.9298 -0.332226,-1.66087 0,-0.68555 0.16411,-1.26744 0.493254,-1.74701 0.330381,-0.48424 0.727364,-0.72287 1.191843,-0.7145 0.178574,0.003 0.385796,0.0847 0.621865,0.24466 0.286011,0.19316 0.429363,0.41421 0.429363,0.66267 0,0.10401 -0.02185,0.19449 -0.06554,0.27141 -0.01899,0.11505 -0.03417,0.26048 -0.04556,0.4363 -0.0095,0.17298 -0.01423,0.37638 -0.01423,0.61023 0,0.55142 0.02562,0.9493 0.07688,1.19375 0.0057,0.0262 0.04939,0.17807 0.131142,0.45579 0.07421,0.25162 0.111336,0.39487 0.111336,0.42957 0,0.15329 -0.03903,0.27884 -0.117043,0.3766 -0.07604,0.0977 -0.16436,0.14433 -0.264916,0.1398 0,0 -1e-6,1e-5 -1e-6,1e-5 m -0.702603,-2.98963 c 0,-0.092 0.0038,-0.19681 0.01129,-0.31447 0.0094,-0.1205 0.02258,-0.25385 0.03952,-0.40007 -0.03764,-0.0297 -0.0715,-0.0506 -0.101588,-0.0628 -0.0282,-0.015 -0.05263,-0.0228 -0.0733,-0.0233 -0.255122,-0.006 -0.477751,0.14188 -0.668129,0.44338 -0.189968,0.29799 -0.284798,0.64674 -0.284798,1.04674 0,0.38285 0.04461,0.67303 0.133908,0.87071 0.08939,0.195 0.223633,0.29607 0.402949,0.30306 0.116003,0.005 0.225597,-0.0199 0.328758,-0.0733 0.105161,-0.0563 0.203863,-0.14018 0.296085,-0.25175 -0.05647,-0.68635 -0.0847,-1.19897 -0.0847,-1.53817 0,0 3e-6,-1e-5 3e-6,-1e-5"
             style="font-style:normal;font-variant:normal;font-weight:bold;font-stretch:normal;font-family:'Comic Sans MS';-inkscape-font-specification:'Comic Sans MS Bold';letter-spacing:1.90343082px;fill:#ffffff;stroke:#ffffff;stroke-width:0.27230763;stroke-opacity:1"
             id="path5442" />
          <path
             inkscape:connector-curvature="0"
             d="m 35.783918,246.56343 c -0.01797,0.45268 -0.156664,0.67515 -0.415519,0.66748 -0.250188,-0.007 -0.375025,-0.20281 -0.375025,-0.5862 0,0 -0.01485,-0.44717 -0.01485,-0.44717 -0.444373,0.0952 -0.761014,0.42664 -0.951251,0.99364 0,0 0.0029,2.21346 0.0029,2.21346 0,0.16721 -0.0382,0.30342 -0.114541,0.40857 -0.07628,0.10799 -0.173004,0.1593 -0.290106,0.15402 -0.120846,-0.005 -0.214293,-0.0681 -0.280425,-0.18799 -0.0622,-0.10792 -0.09328,-0.24363 -0.09328,-0.4072 0,0 0,-2.8698 0,-2.8698 0,-0.0905 0.0019,-0.22486 0.0058,-0.40295 0.0039,-0.18101 0.0058,-0.31679 0.0058,-0.40735 0,-0.16359 0.03206,-0.29878 0.09621,-0.40565 0.06614,-0.10984 0.159605,-0.16368 0.280471,-0.16148 0.216794,0.004 0.345946,0.17347 0.387078,0.50867 0.347435,-0.38067 0.734717,-0.56777 1.16235,-0.56017 0.397758,0.007 0.597291,0.40459 0.597291,1.19251 0,0.15107 -9.99e-4,0.25027 -0.003,0.29761 0,0 0,0 0,0"
             style="font-style:normal;font-variant:normal;font-weight:bold;font-stretch:normal;font-family:'Comic Sans MS';-inkscape-font-specification:'Comic Sans MS Bold';letter-spacing:1.90343082px;fill:#ffffff;stroke:#ffffff;stroke-width:0.27230763;stroke-opacity:1"
             id="path5444" />
          <path
             inkscape:connector-curvature="0"
             d="m 40.313164,250.15047 c -0.16559,-0.007 -0.291158,-0.12813 -0.376866,-0.36213 -0.102329,-0.27989 -0.255611,-0.61143 -0.459595,-0.99419 -0.315501,-0.59407 -0.482159,-0.90873 -0.500773,-0.9455 -0.165293,0.17231 -0.301439,0.30317 -0.408565,0.39275 -0.02059,0.41725 -0.03088,0.81677 -0.03088,1.19863 0,0.1744 -0.04013,0.31701 -0.120328,0.42775 -0.08013,0.11066 -0.181737,0.16322 -0.304746,0.15777 -0.288427,-0.0128 -0.432302,-0.27056 -0.432302,-0.77335 0,-0.23644 0.01121,-0.58918 0.03365,-1.0583 0.02448,-0.47218 0.03672,-0.82658 0.03672,-1.06311 0,-0.43412 0.0041,-0.92953 0.01225,-1.48626 0.0102,-0.55973 0.01531,-1.05372 0.01531,-1.48193 0,-0.12876 -0.0051,-0.28004 -0.01531,-0.45381 -0.0082,-0.17674 -0.01225,-0.32947 -0.01225,-0.45821 0,-0.17365 0.0398,-0.31563 0.119462,-0.426 0.07973,-0.11347 0.181018,-0.16998 0.303945,-0.16944 0.123091,5.5e-4 0.224764,0.0581 0.304949,0.17268 0.08026,0.11169 0.120409,0.2548 0.120409,0.42925 0,0.13234 0.0051,0.28879 0.01545,0.46937 0.0103,0.1806 0.01545,0.33708 0.01545,0.46945 0,0.35798 -0.0062,0.78205 -0.01854,1.27214 -0.01236,0.46897 -0.01751,0.88693 -0.01545,1.25392 0.280521,-0.3089 0.709125,-0.87501 1.287866,-1.70147 0.09193,-0.13176 0.196506,-0.19676 0.31377,-0.19489 0.117412,0.002 0.221319,0.0658 0.311675,0.19187 0.09044,0.12619 0.135698,0.27144 0.135698,0.43566 0,0.13989 -0.04105,0.27436 -0.123083,0.40333 -0.247779,0.3953 -0.54195,0.80653 -0.88207,1.2333 0,0 0.652117,1.23856 0.652117,1.23856 0.317251,0.62215 0.476281,1.03595 0.476281,1.23983 0,0.16737 -0.04637,0.30688 -0.139034,0.41846 -0.09258,0.1145 -0.197663,0.16909 -0.315221,0.16387 0,0 3e-6,0 3e-6,0"
             style="font-style:normal;font-variant:normal;font-weight:bold;font-stretch:normal;font-family:'Comic Sans MS';-inkscape-font-specification:'Comic Sans MS Bold';letter-spacing:1.90343082px;fill:#ffffff;stroke:#ffffff;stroke-width:0.27230763;stroke-opacity:1"
             id="path5446" />
          <path
             inkscape:connector-curvature="0"
             d="m 45.298495,250.51239 c -0.271616,-0.0123 -0.422548,-0.20724 -0.453366,-0.58482 -0.03081,-0.32151 -0.06161,-0.64446 -0.0924,-0.96887 -0.03297,-0.34302 -0.04946,-0.66518 -0.04946,-0.96656 0,-0.0808 0.0033,-0.21893 0.0099,-0.41448 0.0088,-0.19549 0.01319,-0.33364 0.01319,-0.41444 0,-0.0217 0.0022,-0.0761 0.0066,-0.16296 0.0044,-0.09 0.0066,-0.16296 0.0066,-0.2189 0,-0.25793 -0.04726,-0.38802 -0.1417,-0.39026 -0.201751,-0.005 -0.399797,0.15782 -0.594161,0.48735 -0.191791,0.32582 -0.341902,0.74184 -0.45053,1.2481 -0.0043,0.10177 -0.01411,0.23732 -0.02931,0.40663 -0.01302,0.13848 -0.01953,0.2741 -0.01953,0.40687 0,0.0864 0.0065,0.21791 0.01953,0.39442 0.01519,0.17353 0.02279,0.30354 0.02279,0.39001 0,0.17602 -0.04341,0.31929 -0.130182,0.42974 -0.08452,0.11352 -0.191692,0.16734 -0.321434,0.16154 -0.129564,-0.006 -0.236321,-0.069 -0.320348,-0.18963 -0.08395,-0.11742 -0.1259,-0.26369 -0.1259,-0.43888 0,-0.0861 -0.0065,-0.21542 -0.01935,-0.38804 -0.0129,-0.17568 -0.01935,-0.30653 -0.01935,-0.39256 0,-0.29501 0.01505,-0.70475 0.04516,-1.22934 0.03012,-0.52476 0.04518,-0.93477 0.04518,-1.22991 0,-0.0922 -0.0043,-0.22915 -0.01291,-0.41072 -0.0065,-0.1846 -0.0097,-0.32147 -0.0097,-0.41062 0,-0.17214 0.04304,-0.31276 0.129171,-0.42192 0.08837,-0.1123 0.196246,-0.16742 0.3237,-0.16527 0.283604,0.005 0.435496,0.24978 0.455043,0.73508 0,0 0.0033,0.051 0.0033,0.051 0.317663,-0.44817 0.653886,-0.66974 1.008858,-0.66357 0.415807,0.007 0.70397,0.25844 0.863327,0.75426 0.106386,0.33308 0.159623,0.82912 0.159623,1.48784 0,0 0,0.33248 0,0.33248 -0.0022,0.14354 -0.0033,0.24496 -0.0033,0.30428 0,0.2435 0.0233,0.55806 0.06992,0.94382 0.04886,0.38604 0.0733,0.69941 0.0733,0.93997 0,0.17495 -0.04443,0.31828 -0.133231,0.42992 -0.08872,0.11153 -0.198394,0.1643 -0.328955,0.1584 0,0 2e-6,0 2e-6,0"
             style="font-style:normal;font-variant:normal;font-weight:bold;font-stretch:normal;font-family:'Comic Sans MS';-inkscape-font-specification:'Comic Sans MS Bold';letter-spacing:1.90343082px;fill:#ffffff;stroke:#ffffff;stroke-width:0.27230763;stroke-opacity:1"
             id="path5448" />
          <path
             inkscape:connector-curvature="0"
             d="m 50.879829,250.74061 c -0.107671,-0.005 -0.2783,-0.17269 -0.511558,-0.50291 -0.214111,0.13147 -0.402237,0.22867 -0.564524,0.29172 -0.162021,0.0661 -0.299528,0.0966 -0.412625,0.0916 -0.554356,-0.0248 -0.968639,-0.2477 -1.244613,-0.66779 -0.272922,-0.41882 -0.409096,-1.03337 -0.409096,-1.84453 0,-0.76066 0.20206,-1.4058 0.607445,-1.93708 0.407078,-0.53667 0.89644,-0.80071 1.469313,-0.79038 0.220336,0.004 0.476082,0.0949 0.76751,0.27323 0.353199,0.21536 0.530273,0.46141 0.530273,0.73756 0,0.1156 -0.02699,0.21611 -0.08095,0.30147 -0.02345,0.1278 -0.04221,0.28939 -0.05627,0.48476 -0.01172,0.19221 -0.01758,0.41825 -0.01758,0.67815 0,0.61283 0.03165,1.05514 0.09497,1.32706 0.007,0.0291 0.06102,0.19815 0.16201,0.50722 0.09169,0.28006 0.137565,0.43948 0.137565,0.47806 0,0.17039 -0.04823,0.30974 -0.144614,0.41798 -0.09394,0.10824 -0.203043,0.15951 -0.327244,0.15392 0,0 -9e-6,1e-5 -9e-6,1e-5 m -0.867377,-3.32494 c 0,-0.10218 0.0046,-0.21861 0.01393,-0.34929 0.01161,-0.13382 0.02786,-0.28192 0.04877,-0.4443 -0.04644,-0.0331 -0.08823,-0.0564 -0.125356,-0.0701 -0.03479,-0.0168 -0.06493,-0.0255 -0.09044,-0.0261 -0.314715,-0.007 -0.589265,0.15615 -0.823983,0.49032 -0.234154,0.3302 -0.351022,0.71702 -0.351022,1.16106 0,0.425 0.05498,0.74733 0.16503,0.96718 0.110175,0.21692 0.275671,0.32977 0.496768,0.3384 0.143058,0.006 0.278232,-0.021 0.405489,-0.0798 0.129739,-0.062 0.251527,-0.15475 0.365331,-0.27827 -0.06969,-0.7627 -0.104519,-1.33225 -0.104519,-1.70905 0,0 4e-6,-2e-5 4e-6,-2e-5"
             style="font-style:normal;font-variant:normal;font-weight:bold;font-stretch:normal;font-family:'Comic Sans MS';-inkscape-font-specification:'Comic Sans MS Bold';letter-spacing:1.90343082px;fill:#ffffff;stroke:#ffffff;stroke-width:0.27230763;stroke-opacity:1"
             id="path5450" />
          <path
             inkscape:connector-curvature="0"
             d="m 56.282723,245.69054 c 0.03214,-1.1232 0.07047,-1.89895 0.115011,-2.32713 0.04208,-0.38881 0.203126,-0.58263 0.483717,-0.58133 0.146808,6.7e-4 0.265157,0.0641 0.354945,0.19034 0.08987,0.12636 0.134832,0.28068 0.134832,0.46288 0,0.48036 -0.02873,1.19554 -0.08616,2.14513 -0.0549,0.94911 -0.08234,1.66345 -0.08234,2.1434 0,1.17177 0.02869,1.95736 0.08609,2.35695 0.0075,0.0533 0.01123,0.10145 0.01123,0.1445 0,0.18214 -0.04992,0.33069 -0.149697,0.44555 -0.09968,0.11144 -0.215424,0.16421 -0.347192,0.15839 -0.183696,-0.008 -0.320013,-0.12299 -0.409139,-0.34447 -0.168131,0.1279 -0.342151,0.22075 -0.522032,0.27865 -0.179561,0.0611 -0.364936,0.0873 -0.556092,0.0788 -0.546951,-0.0244 -0.998868,-0.27786 -1.357012,-0.75922 -0.364091,-0.48967 -0.545641,-1.10092 -0.545641,-1.83509 0,-0.87384 0.182753,-1.57435 0.549264,-2.10297 0.367855,-0.53383 0.850282,-0.79629 1.448925,-0.78587 0.183972,0.003 0.348602,0.0324 0.493795,0.0875 0.145409,0.0553 0.271267,0.13656 0.377503,0.24397 0,0 -9e-6,1e-5 -9e-6,1e-5 m -0.07413,1.55498 c -0.08147,-0.20961 -0.187548,-0.367 -0.318142,-0.47219 -0.130419,-0.10507 -0.285228,-0.15966 -0.464316,-0.16389 -0.362105,-0.009 -0.632833,0.12571 -0.812918,0.40238 -0.179761,0.27291 -0.269521,0.68822 -0.269521,1.2463 0,0.35247 0.09704,0.65777 0.291405,0.91628 0.194741,0.25899 0.4216,0.39364 0.680793,0.40357 0.188704,0.007 0.332305,-0.0168 0.430611,-0.0722 0.06641,-0.0369 0.179661,-0.13792 0.3399,-0.30314 0.04195,-0.0446 0.08268,-0.0941 0.122188,-0.14873 -0.0051,-0.15829 -0.0051,-0.76106 0,-1.80836 0,0 0,0 0,0"
             style="font-style:normal;font-variant:normal;font-weight:bold;font-stretch:normal;font-family:'Comic Sans MS';-inkscape-font-specification:'Comic Sans MS Bold';letter-spacing:1.90343082px;fill:#ffffff;stroke:#ffffff;stroke-width:0.27230763;stroke-opacity:1"
             id="path5452" />
          <path
             inkscape:connector-curvature="0"
             d="m 62.646305,247.20299 c -0.259991,-0.007 -0.415939,-0.15142 -0.46831,-0.43417 -0.104656,-0.0262 -0.211819,-0.0406 -0.321482,-0.0431 -0.627034,-0.0147 -0.939138,0.0892 -0.939138,0.31166 0,0.13144 0.187669,0.31337 0.564028,0.54641 0.516131,0.32255 0.866884,0.5737 1.05058,0.75248 0.381554,0.36916 0.572855,0.77903 0.572855,1.22862 0,0.58582 -0.211069,1.02149 -0.631933,1.30613 -0.338091,0.2261 -0.752004,0.32786 -1.240832,0.30589 -0.344433,-0.0155 -0.658086,-0.0985 -0.941232,-0.24894 -0.384872,-0.20473 -0.576771,-0.48943 -0.576771,-0.85468 0,-0.33508 0.15221,-0.49692 0.457306,-0.48549 0.118176,0.004 0.289259,0.0596 0.513508,0.16568 0.224737,0.10633 0.398142,0.16194 0.519957,0.16668 0.527788,0.0205 0.793996,-0.10804 0.796609,-0.38575 0,-0.17279 -0.184072,-0.37069 -0.551243,-0.5931 -0.534118,-0.32493 -0.874931,-0.55646 -1.024331,-0.69568 -0.362287,-0.3435 -0.542955,-0.75291 -0.542955,-1.22913 0,-0.67407 0.273048,-1.12313 0.821317,-1.34807 0.323111,-0.1323 0.816174,-0.19282 1.48161,-0.1812 0.262123,0.005 0.456517,0.0522 0.582801,0.1428 0.173889,0.12226 0.260941,0.34349 0.260941,0.66354 0,0.61285 -0.127917,0.916 -0.383285,0.90946 0,0 0,0 0,0"
             style="font-style:normal;font-variant:normal;font-weight:bold;font-stretch:normal;font-family:'Comic Sans MS';-inkscape-font-specification:'Comic Sans MS Bold';letter-spacing:1.90343082px;fill:#ffffff;stroke:#ffffff;stroke-width:0.27230763;stroke-opacity:1"
             id="path5454" />
          <path
             inkscape:connector-curvature="0"
             d="m 67.662599,251.46058 c -0.236848,-0.0106 -0.485523,-0.0565 -0.745942,-0.13753 0,0 -0.0042,2.12213 -0.0042,2.12213 0,0.20114 -0.05337,0.3646 -0.160043,0.4903 -0.106562,0.12556 -0.241659,0.18358 -0.405181,0.17416 -0.163279,-0.009 -0.297795,-0.0828 -0.403656,-0.22002 -0.105756,-0.13711 -0.158594,-0.30566 -0.158594,-0.50573 0,-0.16213 0.0028,-0.80532 0.0083,-1.92963 0.0056,-0.83457 0.0056,-1.51589 0,-2.0439 -0.0081,-0.74539 -0.02709,-1.38755 -0.05687,-1.92642 -0.04061,-0.74241 -0.0609,-1.08248 -0.0609,-1.02042 0,-0.28617 0.05008,-0.52999 0.150301,-0.73161 0.116594,-0.22916 0.274062,-0.34218 0.472584,-0.33886 0.152551,0.003 0.280752,0.0705 0.384516,0.20387 0.103865,0.13352 0.155835,0.2922 0.155835,0.47593 0,0 -0.0042,0.0519 -0.0042,0.0519 0.183461,-0.12816 0.367237,-0.22182 0.55133,-0.28088 0.187158,-0.0626 0.374647,-0.0922 0.562468,-0.0888 0.637714,0.0116 1.105926,0.36168 1.402399,1.05151 0.221486,0.52122 0.332399,1.19323 0.332399,2.01524 0,0.76931 -0.175442,1.40009 -0.525475,1.89112 -0.373977,0.52685 -0.872913,0.77556 -1.495067,0.74762 0,0 -1.1e-5,0 -1.1e-5,0 m 0.285745,-4.30989 c -0.174024,-0.004 -0.350516,0.0435 -0.529466,0.14332 -0.178658,0.0962 -0.358384,0.2442 -0.539174,0.44395 0.03285,0.71528 0.04927,1.43195 0.04927,2.14984 0.243981,0.10989 0.488521,0.16963 0.733621,0.17904 0.284363,0.0109 0.502976,-0.10801 0.655435,-0.35706 0.138788,-0.22546 0.20825,-0.53396 0.20825,-0.92528 0,-0.47171 -0.01667,-0.79888 -0.05001,-0.98148 -0.08054,-0.42825 -0.256669,-0.64561 -0.527926,-0.65233 0,0 0,0 0,0"
             style="font-style:normal;font-variant:normal;font-weight:bold;font-stretch:normal;font-family:'Comic Sans MS';-inkscape-font-specification:'Comic Sans MS Bold';letter-spacing:1.90343082px;fill:#ffffff;stroke:#ffffff;stroke-width:0.27230763;stroke-opacity:1"
             id="path5456" />
          <path
             inkscape:connector-curvature="0"
             d="m 73.744644,250.62784 c 0,0.67998 -0.201013,1.01103 -0.60194,0.99318 -0.173866,-0.008 -0.317097,-0.0818 -0.429813,-0.22217 -0.1126,-0.1402 -0.168857,-0.31703 -0.168857,-0.53059 0,0 0,-7.38383 0,-7.38383 0,-0.20644 0.06059,-0.37515 0.181856,-0.50626 0.115621,-0.12058 0.258873,-0.18055 0.429864,-0.17981 0.17125,7.5e-4 0.312225,0.0657 0.422808,0.19496 0.110693,0.12581 0.166082,0.29254 0.166082,0.50011 0,0 0,7.13441 0,7.13441"
             style="font-style:normal;font-variant:normal;font-weight:bold;font-stretch:normal;font-family:'Comic Sans MS';-inkscape-font-specification:'Comic Sans MS Bold';letter-spacing:1.90343082px;fill:#ffffff;stroke:#ffffff;stroke-width:0.27230763;stroke-opacity:1"
             id="path5458" />
          <path
             inkscape:connector-curvature="0"
             d="m 80.986599,252.09772 c -0.143006,-0.006 -0.369585,-0.20118 -0.679237,-0.58343 -0.284129,0.14984 -0.5337,0.26035 -0.748938,0.33171 -0.214821,0.0749 -0.3971,0.10893 -0.546992,0.10221 -0.734345,-0.0329 -1.282728,-0.29248 -1.647837,-0.77771 -0.36092,-0.48354 -0.540944,-1.19103 -0.540944,-2.12364 0,-0.87456 0.267138,-1.61542 0.803335,-2.22478 0.538782,-0.61595 1.186915,-0.91822 1.946273,-0.90453 0.292238,0.005 0.631566,0.11084 1.018404,0.31724 0.469059,0.24942 0.704316,0.53368 0.704316,0.85201 0,0.13326 -0.03586,0.24899 -0.107556,0.34716 -0.03116,0.1472 -0.05608,0.33337 -0.07476,0.55849 -0.01557,0.22148 -0.02335,0.48199 -0.02335,0.78154 0,0.70634 0.04204,1.21634 0.126175,1.53017 0.0094,0.0336 0.08107,0.22881 0.21528,0.58579 0.121861,0.32353 0.18284,0.50766 0.18284,0.55214 0,0.19645 -0.0641,0.35674 -0.192208,0.48078 -0.12484,0.12403 -0.269794,0.18227 -0.434784,0.17484 0,0 -1.2e-5,1e-5 -1.2e-5,1e-5 m -1.151362,-3.83634 c 0,-0.11769 0.0062,-0.25177 0.01848,-0.40223 0.0154,-0.15409 0.03696,-0.32459 0.06469,-0.51152 -0.06161,-0.0383 -0.117039,-0.0654 -0.166289,-0.0813 -0.04614,-0.0195 -0.08612,-0.0296 -0.119937,-0.0304 -0.417273,-0.01 -0.781129,0.17728 -1.092077,0.56087 -0.310083,0.37887 -0.464804,0.82337 -0.464804,1.33426 0,0.48899 0.07278,0.8602 0.218493,1.11388 0.145898,0.25034 0.365101,0.38133 0.658036,0.39276 0.189598,0.007 0.368783,-0.0223 0.537504,-0.0892 0.172048,-0.0705 0.333585,-0.17655 0.484566,-0.31807 -0.09246,-0.87891 -0.138661,-1.53509 -0.138661,-1.96907 0,0 0,-1e-5 0,-1e-5"
             style="font-style:normal;font-variant:normal;font-weight:bold;font-stretch:normal;font-family:'Comic Sans MS';-inkscape-font-specification:'Comic Sans MS Bold';letter-spacing:1.90343082px;fill:#ffffff;stroke:#ffffff;stroke-width:0.27230763;stroke-opacity:1"
             id="path5460" />
          <path
             inkscape:connector-curvature="0"
             d="m 88.064263,247.43703 c -0.06943,-0.002 -0.152039,-0.006 -0.2478,-0.0118 -0.09237,-0.01 -0.173136,-0.0158 -0.242325,-0.0175 -0.134958,-0.003 -0.291116,0.008 -0.46839,0.0344 0.05906,1.53536 0.0886,2.53877 0.0886,3.00965 0,0.0494 0.0017,0.14246 0.0051,0.27929 0.0034,0.13304 0.005,0.24134 0.005,0.32489 0,0.87343 -0.237785,1.29943 -0.711907,1.27809 -0.179335,-0.008 -0.333994,-0.0793 -0.464075,-0.2136 -0.142921,-0.14226 -0.214316,-0.31524 -0.214316,-0.51909 0,-0.1359 0.0049,-0.33954 0.0146,-0.61095 0.0097,-0.27145 0.0146,-0.47514 0.0146,-0.61105 0,-0.45683 -0.0292,-1.43555 -0.08758,-2.93561 -0.200863,-0.0161 -0.504739,-0.0536 -0.910819,-0.11218 -0.401453,-0.062 -0.601658,-0.31047 -0.601658,-0.7454 0,-0.20997 0.06083,-0.38692 0.182574,-0.53096 0.121876,-0.1442 0.27922,-0.21469 0.472177,-0.21135 0.119154,0.002 0.393348,0.0294 0.823685,0.0822 -0.0033,-0.12081 -0.01143,-0.32093 -0.02431,-0.60034 -0.01296,-0.24166 -0.01944,-0.4285 -0.01944,-0.56055 0,-0.21127 0.06645,-0.38597 0.199457,-0.52423 0.133162,-0.13842 0.294133,-0.2068 0.483027,-0.20502 0.48341,0.005 0.725869,0.47939 0.725869,1.4245 0,0 -0.01009,0.46668 -0.01009,0.46668 0.203506,-0.0306 0.369529,-0.0448 0.497908,-0.0426 0.379375,0.007 0.639046,0.0396 0.778214,0.0993 0.26554,0.11166 0.398535,0.34725 0.398535,0.70658 0,0.21788 -0.06485,0.39801 -0.194455,0.54026 -0.129458,0.1421 -0.293563,0.21071 -0.492169,0.20598 0,0 -1.3e-5,4.2e-4 -1.3e-5,4.2e-4"
             style="font-style:normal;font-variant:normal;font-weight:bold;font-stretch:normal;font-family:'Comic Sans MS';-inkscape-font-specification:'Comic Sans MS Bold';letter-spacing:1.90343082px;fill:#ffffff;stroke:#ffffff;stroke-width:0.27230763;stroke-opacity:1"
             id="path5462" />
          <path
             inkscape:connector-curvature="0"
             d="m 95.4855,248.04459 c -0.347978,-0.009 -0.556633,-0.17707 -0.626684,-0.50434 -0.139988,-0.0307 -0.283307,-0.0478 -0.429946,-0.0512 -0.83799,-0.0196 -1.254803,0.0991 -1.254803,0.35614 0,0.15189 0.250608,0.363 0.753399,0.63419 0.68997,0.37558 1.159173,0.66794 1.405009,0.87578 0.510818,0.42935 0.767037,0.90488 0.767037,1.42523 0,0.67803 -0.282692,1.18067 -0.846104,1.50676 -0.452353,0.25885 -1.005841,0.37318 -1.659063,0.34383 -0.459979,-0.0207 -0.87865,-0.11917 -1.256436,-0.29513 -0.513235,-0.23941 -0.769026,-0.56956 -0.769026,-0.99123 0,-0.38684 0.202881,-0.57266 0.609682,-0.55741 0.157634,0.006 0.385879,0.0708 0.685138,0.19485 0.30001,0.1244 0.531565,0.18987 0.694266,0.1962 0.705276,0.0274 1.061218,-0.11937 1.064713,-0.44052 0,-0.19982 -0.24614,-0.42984 -0.736917,-0.68927 -0.713429,-0.37875 -1.168354,-0.64821 -1.367697,-0.80986 -0.483232,-0.39868 -0.724116,-0.87233 -0.724116,-1.42217 0,-0.77829 0.364078,-1.29582 1.095583,-1.55378 0.431379,-0.15181 1.09006,-0.22019 1.979786,-0.20465 0.350709,0.006 0.61089,0.0618 0.779957,0.16708 0.232857,0.14205 0.349454,0.39839 0.349454,0.76879 0,0.70927 -0.171319,1.05952 -0.513232,1.05076 0,0 0,0 0,0"
             style="font-style:normal;font-variant:normal;font-weight:bold;font-stretch:normal;font-family:'Comic Sans MS';-inkscape-font-specification:'Comic Sans MS Bold';letter-spacing:1.90343082px;fill:#ffffff;stroke:#ffffff;stroke-width:0.27230763;stroke-opacity:1"
             id="path5464" />
          <path
             inkscape:connector-curvature="0"
             d="m 102.46044,252.94434 c -0.88728,-0.0396 -1.60838,-0.30082 -2.16614,-0.78234 -0.613551,-0.52968 -0.919186,-1.251 -0.919186,-2.16593 0,-1.0108 0.241898,-1.8596 0.727126,-2.54843 0.5422,-0.76677 1.27686,-1.14309 2.2074,-1.12634 0.64918,0.0117 1.19089,0.13518 1.62369,0.37106 0.57056,0.31287 0.85682,0.78833 0.85682,1.42531 0,0.44916 -0.23322,0.84067 -0.69838,1.1736 -0.2112,0.15239 -0.63443,0.37106 -1.26754,0.65511 0,0 -1.87468,0.83772 -1.87468,0.83772 0.17681,0.21563 0.39078,0.3806 0.64211,0.49486 0.25184,0.11451 0.54135,0.17816 0.86878,0.19082 0.50026,0.0194 0.92555,-0.0759 1.27512,-0.28614 0.3128,-0.18782 0.56399,-0.2785 0.75319,-0.27166 0.39443,0.0143 0.59211,0.22784 0.59211,0.64073 0,0.46602 -0.31728,0.83289 -0.94945,1.09959 -0.52752,0.2211 -1.08464,0.31818 -1.67097,0.29204 0,0 0,0 0,0 m -0.1508,-5.15544 c -0.3456,-0.008 -0.64026,0.10971 -0.88437,0.35353 -0.24361,0.24333 -0.4389,0.61217 -0.58608,1.10642 0.41625,-0.1848 0.83204,-0.36826 1.24737,-0.55037 0.50249,-0.23305 0.90407,-0.45142 1.20375,-0.65479 -0.25103,-0.16032 -0.57812,-0.24517 -0.98067,-0.25479 0,0 0,0 0,0"
             style="font-style:normal;font-variant:normal;font-weight:bold;font-stretch:normal;font-family:'Comic Sans MS';-inkscape-font-specification:'Comic Sans MS Bold';letter-spacing:1.90343082px;fill:#ffffff;stroke:#ffffff;stroke-width:0.27230763;stroke-opacity:1"
             id="path5466" />
          <path
             inkscape:connector-curvature="0"
             d="m 113.64965,253.60177 c -0.49942,-0.0226 -0.77672,-0.29009 -0.83332,-0.80245 -0.0566,-0.4363 -0.11313,-0.87452 -0.16966,-1.31466 -0.0605,-0.46534 -0.0908,-0.90208 -0.0908,-1.31041 0,-0.10944 0.006,-0.29657 0.0182,-0.56141 0.0161,-0.26474 0.0242,-0.45186 0.0242,-0.56132 0,-0.0295 0.004,-0.10304 0.0124,-0.2207 0.008,-0.12188 0.0124,-0.22071 0.0124,-0.29651 0,-0.34947 -0.0867,-0.52627 -0.26007,-0.5304 -0.37004,-0.009 -0.73303,0.20905 -1.089,0.65264 -0.35101,0.43829 -0.62557,0.99882 -0.82417,1.6817 -0.008,0.13751 -0.026,0.3206 -0.0536,0.54924 -0.0238,0.18699 -0.0357,0.37021 -0.0357,0.5497 0,0.11685 0.0119,0.2947 0.0357,0.53356 0.0278,0.23488 0.0417,0.41079 0.0417,0.52769 0,0.23798 -0.0793,0.43078 -0.23788,0.57827 -0.15439,0.15165 -0.35007,0.22211 -0.58686,0.21153 -0.23636,-0.0106 -0.43102,-0.0982 -0.58418,-0.26278 -0.15298,-0.16023 -0.2294,-0.3585 -0.2294,-0.59496 0,-0.11616 -0.0118,-0.29086 -0.0353,-0.52409 -0.0235,-0.23733 -0.0352,-0.41404 -0.0352,-0.53016 0,-0.39814 0.0274,-0.95089 0.0822,-1.65845 0.0549,-0.70787 0.0823,-1.26111 0.0823,-1.6595 0,-0.12451 -0.008,-0.30936 -0.0235,-0.55454 -0.0118,-0.24923 -0.0176,-0.434 -0.0176,-0.55433 0,-0.23236 0.0784,-0.42178 0.23539,-0.56842 0.16109,-0.1509 0.35783,-0.22446 0.59036,-0.22055 0.51783,0.009 0.79539,0.3412 0.83113,0.99751 0,0 0.006,0.069 0.006,0.069 0.58103,-0.60313 1.19676,-0.90008 1.84766,-0.88878 0.76354,0.0133 1.29338,0.35642 1.58663,1.03056 0.19587,0.45309 0.29391,1.12688 0.29391,2.02086 0,0 0,0.45123 0,0.45123 -0.004,0.19476 -0.006,0.33239 -0.006,0.4129 0,0.33045 0.0429,0.75775 0.12879,1.28215 0.09,0.5249 0.13505,0.95077 0.13505,1.27734 0,0.23749 -0.0819,0.43112 -0.24546,0.58074 -0.16338,0.14944 -0.36529,0.21865 -0.60553,0.20779 0,0 -6.1e-4,-2e-5 -6.1e-4,-2e-5"
             style="font-style:normal;font-variant:normal;font-weight:bold;font-stretch:normal;font-family:'Comic Sans MS';-inkscape-font-specification:'Comic Sans MS Bold';letter-spacing:1.90343082px;fill:#ffffff;stroke:#ffffff;stroke-width:0.27230763;stroke-opacity:1"
             id="path5468" />
        </g>
      </g>
    </g>
  </g>
</svg>
